# xmcd
#
# Track frame offsets:
#	150
#	16689
#	39957
#	63445
#	92870
#	122465
#	172420
#	195241
#	220558
#
# Disc length: 3286 seconds
#
# Revision: 1
# Processed by: cddbd v1.5.1PL0 Copyright (c) Steve Scherf et al.
# Submitted via: audiograbber 1.83.01
#
DISCID=6c0cd409
DTITLE=Kenny Wayne Shepherd - 1999-02-12 - The Tabernacle,Atlanta, GA - FM - Di
DTITLE=sc 1
DYEAR=1900
DGENRE=
TTITLE0=Trouble Is
TTITLE1=Ledbetter Heights
TTITLE2=Somehow, somewhere, someway
TTITLE3=True Lies
TTITLE4=Deja Voodoo
TTITLE5=Shame shame shame
TTITLE6=Aberdeen
TTITLE7=Everything Is Broken
TTITLE8=Look Over Yonder (w-Brian Lee)
EXTD=
EXTT0=
EXTT1=
EXTT2=
EXTT3=
EXTT4=
EXTT5=
EXTT6=
EXTT7=
EXTT8=
PLAYORDER=
